<svg width="134" height="118" fill="none" xmlns="http://www.w3.org/2000/svg"><g clip-path="url(#clip0)" fill="#14213D"><circle cx="39" cy="21" r="3"/><circle cx="54" cy="21" r="3"/><circle cx="69" cy="21" r="3"/><circle cx="84" cy="21" r="3"/><circle cx="99" cy="21" r="3"/><circle cx="114" cy="21" r="3"/><circle cx="129" cy="21" r="3"/><circle cx="39" cy="36" r="3"/><circle cx="54" cy="36" r="3"/><circle cx="69" cy="36" r="3"/><circle cx="84" cy="36" r="3"/><circle cx="99" cy="36" r="3"/><circle cx="114" cy="36" r="3"/><circle cx="129" cy="36" r="3"/><circle cx="39" cy="51" r="3"/><circle cx="54" cy="51" r="3"/><circle cx="69" cy="51" r="3"/><circle cx="84" cy="51" r="3"/><circle cx="99" cy="51" r="3"/><circle cx="114" cy="51" r="3"/><circle cx="129" cy="51" r="3"/><circle cx="39" cy="66" r="3"/><circle cx="54" cy="66" r="3"/><circle cx="69" cy="66" r="3"/><circle cx="84" cy="66" r="3"/><circle cx="99" cy="66" r="3"/><circle cx="114" cy="66" r="3"/><circle cx="129" cy="66" r="3"/><circle cx="39" cy="81" r="3"/><circle cx="54" cy="81" r="3"/><circle cx="69" cy="81" r="3"/><circle cx="84" cy="81" r="3"/><circle cx="99" cy="81" r="3"/><circle cx="114" cy="81" r="3"/><circle cx="129" cy="81" r="3"/><circle cx="39" cy="96" r="3"/><circle cx="54" cy="96" r="3"/><circle cx="69" cy="96" r="3"/><circle cx="84" cy="96" r="3"/><circle cx="99" cy="96" r="3"/><circle cx="114" cy="96" r="3"/><circle cx="129" cy="96" r="3"/><circle cx="39" cy="111" r="3"/><circle cx="54" cy="111" r="3"/><circle cx="69" cy="111" r="3"/><circle cx="84" cy="111" r="3"/><circle cx="99" cy="111" r="3"/><circle cx="114" cy="111" r="3"/><circle cx="129" cy="111" r="3"/></g><rect width="80" height="80" rx="20" fill="#FAFAFA" fill-opacity=".5"/><defs><clipPath id="clip0"><rect x="36" y="18" width="100" height="100" rx="50" fill="#fff"/></clipPath></defs></svg>