<svg width="80" height="80" fill="none" xmlns="http://www.w3.org/2000/svg"><g clip-path="url(#clip0)" fill="#14213D"><circle cx="3" cy="3" r="3"/><circle cx="18" cy="3" r="3"/><circle cx="33" cy="3" r="3"/><circle cx="48" cy="3" r="3"/><circle cx="63" cy="3" r="3"/><circle cx="78" cy="3" r="3"/><circle cx="3" cy="18" r="3"/><circle cx="18" cy="18" r="3"/><circle cx="33" cy="18" r="3"/><circle cx="48" cy="18" r="3"/><circle cx="63" cy="18" r="3"/><circle cx="78" cy="18" r="3"/><circle cx="3" cy="33" r="3"/><circle cx="18" cy="33" r="3"/><circle cx="33" cy="33" r="3"/><circle cx="48" cy="33" r="3"/><circle cx="63" cy="33" r="3"/><circle cx="78" cy="33" r="3"/><circle cx="3" cy="48" r="3"/><circle cx="18" cy="48" r="3"/><circle cx="33" cy="48" r="3"/><circle cx="48" cy="48" r="3"/><circle cx="63" cy="48" r="3"/><circle cx="78" cy="48" r="3"/><circle cx="3" cy="63" r="3"/><circle cx="18" cy="63" r="3"/><circle cx="33" cy="63" r="3"/><circle cx="48" cy="63" r="3"/><circle cx="63" cy="63" r="3"/><circle cx="78" cy="63" r="3"/><circle cx="3" cy="78" r="3"/><circle cx="18" cy="78" r="3"/><circle cx="33" cy="78" r="3"/><circle cx="48" cy="78" r="3"/><circle cx="63" cy="78" r="3"/><circle cx="78" cy="78" r="3"/></g><defs><clipPath id="clip0"><path fill="#fff" d="M0 0h80v80H0z"/></clipPath></defs></svg>