<svg width="64" height="64" fill="none" xmlns="http://www.w3.org/2000/svg"><path d="M51.84 32.133a29.333 29.333 0 01-17.493 22.854L32 56l-2.347-1.013A29.333 29.333 0 0112.16 32.133a31.653 31.653 0 0017.173 14.854L32 48l2.667-1.013A31.653 31.653 0 0051.84 32.133z" fill="#E5E5E5"/><path d="M51.147 12.8L32 8l-19.147 4.8a2.667 2.667 0 00-2.026 2.667l1.146 14.72a29.333 29.333 0 0017.68 24.693L32 56l2.347-1.013a29.333 29.333 0 0017.68-24.694l1.146-14.72a2.667 2.667 0 00-2.026-2.773v0z" stroke="#14213D" stroke-width="4" stroke-linecap="round" stroke-linejoin="round"/><path d="M24 29.333l5.333 5.334L40 24" stroke="#FCA311" stroke-width="4" stroke-linecap="round" stroke-linejoin="round"/></svg>