<svg width="64" height="64" fill="none" xmlns="http://www.w3.org/2000/svg"><path d="M32 42.667c5.891 0 10.667-4.776 10.667-10.667S37.89 21.333 32 21.333 21.333 26.11 21.333 32 26.11 42.667 32 42.667z" fill="#E5E5E5"/><path d="M48 8l-5.333 5.333v8h8L56 16l-5.333-2.667L48 8z" fill="#FCA311"/><path d="M56 32A24 24 0 1132 8l24 24zM32 21.333A10.667 10.667 0 1042.667 32L32 21.333zM32 32l10.667-10.667L32 32zM48 8l-5.333 5.333v8h8L56 16l-5.333-2.667L48 8z" stroke="#14213D" stroke-width="4" stroke-linecap="round" stroke-linejoin="round"/></svg>