<svg width="64" height="64" fill="none" xmlns="http://www.w3.org/2000/svg"><path d="M12.8 17.6a25.867 25.867 0 0011.787 5.6c2.433.542 4.92.81 7.413.8 2.493.01 4.98-.258 7.413-.8A25.867 25.867 0 0051.2 17.6M56 32a24 24 0 11-48 0 24 24 0 0148 0v0zm-4.8 14.4a25.867 25.867 0 00-11.787-5.6 34.668 34.668 0 00-14.826 0A25.867 25.867 0 0012.8 46.4h38.4z" stroke="#14213D" stroke-width="3" stroke-linecap="round" stroke-linejoin="round"/><path d="M32 56c4.418 0 8-10.745 8-24S36.418 8 32 8s-8 10.745-8 24 3.582 24 8 24z" stroke="#FCA311" stroke-width="3" stroke-linecap="round" stroke-linejoin="round"/></svg>