<svg width="186" height="186" fill="none" xmlns="http://www.w3.org/2000/svg"><path d="M6 3a3 3 0 11-6 0 3 3 0 016 0zM21 3a3 3 0 11-6 0 3 3 0 016 0zM36 3a3 3 0 11-6 0 3 3 0 016 0zM51 3a3 3 0 11-6 0 3 3 0 016 0zM66 3a3 3 0 11-6 0 3 3 0 016 0zM81 3a3 3 0 11-6 0 3 3 0 016 0zM96 3a3 3 0 11-6 0 3 3 0 016 0zM111 3a3 3 0 11-6 0 3 3 0 016 0zM126 3a3 3 0 11-6 0 3 3 0 016 0zM141 3a3 3 0 11-6 0 3 3 0 016 0zM156 3a3 3 0 11-6 0 3 3 0 016 0zM171 3a3 3 0 11-6 0 3 3 0 016 0zM186 3a3 3 0 11-6 0 3 3 0 016 0zM6 18a3 3 0 11-6 0 3 3 0 016 0zM21 18a3 3 0 11-6 0 3 3 0 016 0zM36 18a3 3 0 11-6 0 3 3 0 016 0zM51 18a3 3 0 11-6 0 3 3 0 016 0zM66 18a3 3 0 11-6 0 3 3 0 016 0zM81 18a3 3 0 11-6 0 3 3 0 016 0zM96 18a3 3 0 11-6 0 3 3 0 016 0zM111 18a3 3 0 11-6 0 3 3 0 016 0zM126 18a3 3 0 11-6 0 3 3 0 016 0zM141 18a3 3 0 11-6 0 3 3 0 016 0zM156 18a3 3 0 11-6 0 3 3 0 016 0zM171 18a3 3 0 11-6 0 3 3 0 016 0zM186 18a3 3 0 11-6 0 3 3 0 016 0zM6 33a3 3 0 11-6 0 3 3 0 016 0zM21 33a3 3 0 11-6 0 3 3 0 016 0zM36 33a3 3 0 11-6 0 3 3 0 016 0zM51 33a3 3 0 11-6 0 3 3 0 016 0zM66 33a3 3 0 11-6 0 3 3 0 016 0zM81 33a3 3 0 11-6 0 3 3 0 016 0zM96 33a3 3 0 11-6 0 3 3 0 016 0zM111 33a3 3 0 11-6 0 3 3 0 016 0zM126 33a3 3 0 11-6 0 3 3 0 016 0zM141 33a3 3 0 11-6 0 3 3 0 016 0zM156 33a3 3 0 11-6 0 3 3 0 016 0zM171 33a3 3 0 11-6 0 3 3 0 016 0zM186 33a3 3 0 11-6 0 3 3 0 016 0zM6 48a3 3 0 11-6 0 3 3 0 016 0zM21 48a3 3 0 11-6 0 3 3 0 016 0zM36 48a3 3 0 11-6 0 3 3 0 016 0zM51 48a3 3 0 11-6 0 3 3 0 016 0zM66 48a3 3 0 11-6 0 3 3 0 016 0zM81 48a3 3 0 11-6 0 3 3 0 016 0zM96 48a3 3 0 11-6 0 3 3 0 016 0zM111 48a3 3 0 11-6 0 3 3 0 016 0zM126 48a3 3 0 11-6 0 3 3 0 016 0zM141 48a3 3 0 11-6 0 3 3 0 016 0zM156 48a3 3 0 11-6 0 3 3 0 016 0zM171 48a3 3 0 11-6 0 3 3 0 016 0zM186 48a3 3 0 11-6 0 3 3 0 016 0zM6 63a3 3 0 11-6 0 3 3 0 016 0zM21 63a3 3 0 11-6 0 3 3 0 016 0zM36 63a3 3 0 11-6 0 3 3 0 016 0zM51 63a3 3 0 11-6 0 3 3 0 016 0zM66 63a3 3 0 11-6 0 3 3 0 016 0zM81 63a3 3 0 11-6 0 3 3 0 016 0zM96 63a3 3 0 11-6 0 3 3 0 016 0zM111 63a3 3 0 11-6 0 3 3 0 016 0zM126 63a3 3 0 11-6 0 3 3 0 016 0zM141 63a3 3 0 11-6 0 3 3 0 016 0zM156 63a3 3 0 11-6 0 3 3 0 016 0zM171 63a3 3 0 11-6 0 3 3 0 016 0zM186 63a3 3 0 11-6 0 3 3 0 016 0zM6 78a3 3 0 11-6 0 3 3 0 016 0zM21 78a3 3 0 11-6 0 3 3 0 016 0zM36 78a3 3 0 11-6 0 3 3 0 016 0zM51 78a3 3 0 11-6 0 3 3 0 016 0zM66 78a3 3 0 11-6 0 3 3 0 016 0zM81 78a3 3 0 11-6 0 3 3 0 016 0zM96 78a3 3 0 11-6 0 3 3 0 016 0zM111 78a3 3 0 11-6 0 3 3 0 016 0zM126 78a3 3 0 11-6 0 3 3 0 016 0zM141 78a3 3 0 11-6 0 3 3 0 016 0zM156 78a3 3 0 11-6 0 3 3 0 016 0zM171 78a3 3 0 11-6 0 3 3 0 016 0zM186 78a3 3 0 11-6 0 3 3 0 016 0zM6 93a3 3 0 11-6 0 3 3 0 016 0zM21 93a3 3 0 11-6 0 3 3 0 016 0zM36 93a3 3 0 11-6 0 3 3 0 016 0zM51 93a3 3 0 11-6 0 3 3 0 016 0zM66 93a3 3 0 11-6 0 3 3 0 016 0zM81 93a3 3 0 11-6 0 3 3 0 016 0zM96 93a3 3 0 11-6 0 3 3 0 016 0zM111 93a3 3 0 11-6 0 3 3 0 016 0zM126 93a3 3 0 11-6 0 3 3 0 016 0zM141 93a3 3 0 11-6 0 3 3 0 016 0zM156 93a3 3 0 11-6 0 3 3 0 016 0zM171 93a3 3 0 11-6 0 3 3 0 016 0zM186 93a3 3 0 11-6 0 3 3 0 016 0zM6 108a3 3 0 11-6 0 3 3 0 016 0zM21 108a3 3 0 11-6 0 3 3 0 016 0zM36 108a3 3 0 11-6 0 3 3 0 016 0zM51 108a3 3 0 11-6 0 3 3 0 016 0zM66 108a3 3 0 11-6 0 3 3 0 016 0zM81 108a3 3 0 11-6 0 3 3 0 016 0zM96 108a3 3 0 11-6 0 3 3 0 016 0zM111 108a3 3 0 11-6 0 3 3 0 016 0zM126 108a3 3 0 11-6 0 3 3 0 016 0zM141 108a3 3 0 11-6 0 3 3 0 016 0zM156 108a3 3 0 11-6 0 3 3 0 016 0zM171 108a3 3 0 11-6 0 3 3 0 016 0zM186 108a3 3 0 11-6 0 3 3 0 016 0zM6 123a3 3 0 11-6 0 3 3 0 016 0zM21 123a3 3 0 11-6 0 3 3 0 016 0zM36 123a3 3 0 11-6 0 3 3 0 016 0zM51 123a3 3 0 11-6 0 3 3 0 016 0zM66 123a3 3 0 11-6 0 3 3 0 016 0zM81 123a3 3 0 11-6 0 3 3 0 016 0zM96 123a3 3 0 11-6 0 3 3 0 016 0zM111 123a3 3 0 11-6 0 3 3 0 016 0zM126 123a3 3 0 11-6 0 3 3 0 016 0zM141 123a3 3 0 11-6 0 3 3 0 016 0zM156 123a3 3 0 11-6 0 3 3 0 016 0zM171 123a3 3 0 11-6 0 3 3 0 016 0zM186 123a3 3 0 11-6 0 3 3 0 016 0zM6 138a3 3 0 11-6 0 3 3 0 016 0zM21 138a3 3 0 11-6 0 3 3 0 016 0zM36 138a3 3 0 11-6 0 3 3 0 016 0zM51 138a3 3 0 11-6 0 3 3 0 016 0zM66 138a3 3 0 11-6 0 3 3 0 016 0zM81 138a3 3 0 11-6 0 3 3 0 016 0zM96 138a3 3 0 11-6 0 3 3 0 016 0zM111 138a3 3 0 11-6 0 3 3 0 016 0zM126 138a3 3 0 11-6 0 3 3 0 016 0zM141 138a3 3 0 11-6 0 3 3 0 016 0zM156 138a3 3 0 11-6 0 3 3 0 016 0zM171 138a3 3 0 11-6 0 3 3 0 016 0zM186 138a3 3 0 11-6 0 3 3 0 016 0zM6 153a3 3 0 11-6 0 3 3 0 016 0zM21 153a3 3 0 11-6 0 3 3 0 016 0zM36 153a3 3 0 11-6 0 3 3 0 016 0zM51 153a3 3 0 11-6 0 3 3 0 016 0zM66 153a3 3 0 11-6 0 3 3 0 016 0zM81 153a3 3 0 11-6 0 3 3 0 016 0zM96 153a3 3 0 11-6 0 3 3 0 016 0zM111 153a3 3 0 11-6 0 3 3 0 016 0zM126 153a3 3 0 11-6 0 3 3 0 016 0zM141 153a3 3 0 11-6 0 3 3 0 016 0zM156 153a3 3 0 11-6 0 3 3 0 016 0zM171 153a3 3 0 11-6 0 3 3 0 016 0zM186 153a3 3 0 11-6 0 3 3 0 016 0zM6 168a3 3 0 11-6 0 3 3 0 016 0zM21 168a3 3 0 11-6 0 3 3 0 016 0zM36 168a3 3 0 11-6 0 3 3 0 016 0zM51 168a3 3 0 11-6 0 3 3 0 016 0zM66 168a3 3 0 11-6 0 3 3 0 016 0zM81 168a3 3 0 11-6 0 3 3 0 016 0zM96 168a3 3 0 11-6 0 3 3 0 016 0zM111 168a3 3 0 11-6 0 3 3 0 016 0zM126 168a3 3 0 11-6 0 3 3 0 016 0zM141 168a3 3 0 11-6 0 3 3 0 016 0zM156 168a3 3 0 11-6 0 3 3 0 016 0zM171 168a3 3 0 11-6 0 3 3 0 016 0zM186 168a3 3 0 11-6 0 3 3 0 016 0zM6 183a3 3 0 11-6 0 3 3 0 016 0zM21 183a3 3 0 11-6 0 3 3 0 016 0zM36 183a3 3 0 11-6 0 3 3 0 016 0zM51 183a3 3 0 11-6 0 3 3 0 016 0zM66 183a3 3 0 11-6 0 3 3 0 016 0zM81 183a3 3 0 11-6 0 3 3 0 016 0zM96 183a3 3 0 11-6 0 3 3 0 016 0zM111 183a3 3 0 11-6 0 3 3 0 016 0zM126 183a3 3 0 11-6 0 3 3 0 016 0zM141 183a3 3 0 11-6 0 3 3 0 016 0zM156 183a3 3 0 11-6 0 3 3 0 016 0zM171 183a3 3 0 11-6 0 3 3 0 016 0zM186 183a3 3 0 11-6 0 3 3 0 016 0z" fill="#14213D"/></svg>