<svg width="100" height="100" fill="none" xmlns="http://www.w3.org/2000/svg"><g clip-path="url(#clip0)" fill="#FCA311"><path d="M6 3a3 3 0 11-6 0 3 3 0 016 0zM21 3a3 3 0 11-6 0 3 3 0 016 0zM36 3a3 3 0 11-6 0 3 3 0 016 0zM51 3a3 3 0 11-6 0 3 3 0 016 0zM66 3a3 3 0 11-6 0 3 3 0 016 0zM81 3a3 3 0 11-6 0 3 3 0 016 0zM96 3a3 3 0 11-6 0 3 3 0 016 0zM6 18a3 3 0 11-6 0 3 3 0 016 0zM21 18a3 3 0 11-6 0 3 3 0 016 0zM36 18a3 3 0 11-6 0 3 3 0 016 0zM51 18a3 3 0 11-6 0 3 3 0 016 0zM66 18a3 3 0 11-6 0 3 3 0 016 0zM81 18a3 3 0 11-6 0 3 3 0 016 0zM96 18a3 3 0 11-6 0 3 3 0 016 0zM6 33a3 3 0 11-6 0 3 3 0 016 0zM21 33a3 3 0 11-6 0 3 3 0 016 0zM36 33a3 3 0 11-6 0 3 3 0 016 0zM51 33a3 3 0 11-6 0 3 3 0 016 0zM66 33a3 3 0 11-6 0 3 3 0 016 0zM81 33a3 3 0 11-6 0 3 3 0 016 0zM96 33a3 3 0 11-6 0 3 3 0 016 0zM6 48a3 3 0 11-6 0 3 3 0 016 0zM21 48a3 3 0 11-6 0 3 3 0 016 0zM36 48a3 3 0 11-6 0 3 3 0 016 0zM51 48a3 3 0 11-6 0 3 3 0 016 0zM66 48a3 3 0 11-6 0 3 3 0 016 0zM81 48a3 3 0 11-6 0 3 3 0 016 0zM96 48a3 3 0 11-6 0 3 3 0 016 0zM6 63a3 3 0 11-6 0 3 3 0 016 0zM21 63a3 3 0 11-6 0 3 3 0 016 0zM36 63a3 3 0 11-6 0 3 3 0 016 0zM51 63a3 3 0 11-6 0 3 3 0 016 0zM66 63a3 3 0 11-6 0 3 3 0 016 0zM81 63a3 3 0 11-6 0 3 3 0 016 0zM96 63a3 3 0 11-6 0 3 3 0 016 0zM6 78a3 3 0 11-6 0 3 3 0 016 0zM21 78a3 3 0 11-6 0 3 3 0 016 0zM36 78a3 3 0 11-6 0 3 3 0 016 0zM51 78a3 3 0 11-6 0 3 3 0 016 0zM66 78a3 3 0 11-6 0 3 3 0 016 0zM81 78a3 3 0 11-6 0 3 3 0 016 0zM96 78a3 3 0 11-6 0 3 3 0 016 0zM6 93a3 3 0 11-6 0 3 3 0 016 0zM21 93a3 3 0 11-6 0 3 3 0 016 0zM36 93a3 3 0 11-6 0 3 3 0 016 0zM51 93a3 3 0 11-6 0 3 3 0 016 0zM66 93a3 3 0 11-6 0 3 3 0 016 0zM81 93a3 3 0 11-6 0 3 3 0 016 0zM96 93a3 3 0 11-6 0 3 3 0 016 0z"/></g><defs><clipPath id="clip0"><path fill="#fff" d="M0 0h100v100H0z"/></clipPath></defs></svg>